
<svg width="2264px" height="418px" viewBox="0 0 2264 418" version="1.1" xmlns="http://www.w3.org/2000/svg" xmlns:xlink="http://www.w3.org/1999/xlink">
    <!-- Generator: Sketch 50.2 (55047) - http://www.bohemiancoding.com/sketch -->
    <desc>Created with Sketch.</desc>
    <defs>
        <linearGradient x1="50.002131%" y1="99.9999773%" x2="50.002131%" y2="0.00682805565%" id="linearGradient-1">
            <stop stop-color="#F5824A" offset="0%"></stop>
            <stop stop-color="#F79D47" offset="100%"></stop>
        </linearGradient>
    </defs>
    <g id="Page-1" stroke="none" stroke-width="1" fill="none" fill-rule="evenodd">
        <g id="expeditorAsset-1" transform="translate(-38.000000, -41.000000)">
            <path d="M84.67,242.46 C79.6405788,242.467618 74.8191812,240.453297 71.29,236.87 C26.8448848,191.858793 27.3037929,119.340115 72.315,74.895 C117.326207,30.4498848 189.844885,30.9087929 234.29,75.92 C239.17894,80.6667089 241.118433,87.6863129 239.359955,94.269681 C237.601477,100.853049 232.420041,105.970588 225.815361,107.647245 C219.210681,109.323902 212.215682,107.29746 207.53,102.35 C177.681771,72.1179328 128.977067,71.8067707 98.745,101.655 C68.5129328,131.503229 68.2017707,180.207933 98.05,210.44 C103.361104,215.839848 104.915435,223.898394 101.993659,230.886199 C99.0718832,237.874003 92.244037,242.427751 84.67,242.44 L84.67,242.46 Z M347.24,458.13 C393.440154,458.148237 435.124875,430.399217 452.935138,387.770013 C470.745401,345.140808 461.191337,295.984487 428.71,263.13 C424.024318,258.18254 417.029319,256.156098 410.424639,257.832755 C403.819959,259.509412 398.638523,264.626951 396.880045,271.210319 C395.121567,277.793687 397.06106,284.813291 401.95,289.56 C421.542711,309.057406 429.167664,337.568135 421.923306,364.242888 C414.678947,390.917641 393.67929,411.654467 366.915415,418.562301 C340.151539,425.470135 311.739103,417.486714 292.49,397.65 C285.146868,390.520498 273.45104,390.570532 266.169175,397.762598 C258.88731,404.954665 258.69216,416.648972 265.73,424.08 C287.05353,445.720084 316.119716,457.97344 346.5,458.13 L347.24,458.13 Z M189.44,376.32 C204.983361,354.697563 200.05677,324.568934 178.435781,309.02356 C156.814792,293.478185 126.685704,298.40197 111.138316,320.021511 C95.590928,341.641052 100.511907,371.770598 122.13,387.32 C132.513953,394.788941 145.44001,397.8261 158.063625,395.763112 C170.687239,393.700123 181.973961,386.70604 189.44,376.32 Z M388.44,178.32 C403.983361,156.697563 399.05677,126.568934 377.435781,111.02356 C355.814792,95.4781851 325.685704,100.40197 310.138316,122.021511 C294.590928,143.641052 299.511907,173.770598 321.13,189.32 C331.513953,196.788941 344.44001,199.8261 357.063625,197.763112 C369.687239,195.700123 380.973961,188.70604 388.44,178.32 Z" id="Shape" fill="#435363" fill-rule="nonzero"></path>
            <path d="M124.74,192.63 C103.121907,177.080598 98.200928,146.951052 113.748316,125.331511 C129.295704,103.71197 159.424792,98.7881851 181.045781,114.33356 C202.66677,129.878934 207.593361,160.007563 192.05,181.63 C184.583961,192.01604 173.297239,199.010123 160.673625,201.073112 C148.05001,203.1361 135.123953,200.098941 124.74,192.63 Z M324.87,385.28 C346.492437,400.823361 376.621066,395.89677 392.16644,374.275781 C407.711815,352.654792 402.78803,322.525704 381.168489,306.978316 C359.548948,291.430928 329.419402,296.351907 313.87,317.97 C306.401059,328.353953 303.3639,341.28001 305.426888,353.903625 C307.489877,366.527239 314.48396,377.813961 324.87,385.28 Z M153.22,458.55 C183.341952,458.588735 212.260011,446.728233 233.68,425.55 C240.809502,418.206868 240.759468,406.51104 233.567402,399.229175 C226.375335,391.94731 214.681028,391.75216 207.25,398.79 C187.691495,418.098419 159.317773,425.505795 132.816939,418.221843 C106.316106,410.93789 85.7142681,390.069214 78.7719393,363.476843 C71.8296104,336.884472 79.6014953,308.608419 99.16,289.3 C106.289502,281.956868 106.239468,270.26104 99.0474018,262.979175 C91.8553355,255.69731 80.1610282,255.50216 72.73,262.54 C39.7523745,295.080642 29.6343001,344.287413 47.0970054,387.199778 C64.5597106,430.112143 106.161333,458.272164 152.49,458.54 L153.22,458.55 Z M414.06,242.89 C419.007474,242.894723 423.75608,240.942798 427.27,237.46 C456.387147,208.709052 467.954051,166.608267 457.613572,127.016605 C447.273094,87.4249422 416.596196,56.3573172 377.138571,45.5166037 C337.680946,34.6758903 295.437145,45.7090506 266.32,74.46 C261.37254,79.1456822 259.346098,86.1406808 261.022755,92.7453611 C262.699412,99.3500414 267.816951,104.531477 274.400319,106.289955 C280.983687,108.048433 288.003291,106.10894 292.75,101.22 C322.982067,71.3717707 371.686771,71.6829328 401.535,101.915 C431.383229,132.147067 431.072067,180.851771 400.84,210.7 C395.413839,216.061631 393.763138,224.169503 396.661089,231.225861 C399.55904,238.282218 406.431743,242.889643 414.06,242.89 Z" id="Shape" fill="url(#linearGradient-1)"></path>
        </g>
        <path d="M700.504,310.056 L547,310.056 L547,108.456 L699.064,108.456 L699.064,147.912 L591.064,147.912 L591.064,188.808 L686.104,188.808 L686.104,228.264 L591.064,228.264 L591.064,270.6 L700.504,270.6 L700.504,310.056 Z M917.656,310.056 L865.816,310.056 L820.6,240.936 L775.096,310.056 L724.696,310.056 L794.968,207.528 L727.576,108.456 L779.416,108.456 L821.752,173.832 L864.376,108.456 L914.776,108.456 L847.384,206.952 L917.656,310.056 Z M1110.328,178.728 C1110.328,225.384 1074.04,249.576 1028.824,249.576 L995.128,249.576 L995.128,310.056 L950.776,310.056 L950.776,108.456 L1033.144,108.456 C1081.24,108.456 1110.328,136.968 1110.328,178.152 L1110.328,178.728 Z M1065.4,179.592 L1065.4,179.016 C1065.4,159.144 1051.576,148.488 1029.4,148.488 L995.128,148.488 L995.128,210.12 L1030.264,210.12 C1052.44,210.12 1065.4,196.872 1065.4,179.592 Z M1296.664,310.056 L1143.16,310.056 L1143.16,108.456 L1295.224,108.456 L1295.224,147.912 L1187.224,147.912 L1187.224,188.808 L1282.264,188.808 L1282.264,228.264 L1187.224,228.264 L1187.224,270.6 L1296.664,270.6 L1296.664,310.056 Z M1521.88,209.256 C1521.88,265.992 1478.104,310.056 1414.744,310.056 L1336.12,310.056 L1336.12,108.456 L1414.744,108.456 C1478.104,108.456 1521.88,151.944 1521.88,208.68 L1521.88,209.256 Z M1475.512,209.832 L1475.512,209.256 C1475.512,173.544 1451.032,148.488 1414.744,148.488 L1380.472,148.488 L1380.472,270.024 L1414.744,270.024 C1451.032,270.024 1475.512,245.544 1475.512,209.832 Z M1607.704,310.056 L1563.352,310.056 L1563.352,108.456 L1607.704,108.456 L1607.704,310.056 Z M1810.744,149.352 L1749.4,149.352 L1749.4,310.056 L1705.048,310.056 L1705.048,149.352 L1643.704,149.352 L1643.704,108.456 L1810.744,108.456 L1810.744,149.352 Z M2050.072,209.256 C2050.072,266.568 2004.856,313.512 1942.648,313.512 C1880.44,313.512 1835.8,267.144 1835.8,209.832 L1835.8,209.256 C1835.8,151.944 1881.016,105 1943.224,105 C2005.432,105 2050.072,151.368 2050.072,208.68 L2050.072,209.256 Z M2003.704,209.832 L2003.704,209.256 C2003.704,174.696 1978.36,145.896 1942.648,145.896 C1906.936,145.896 1882.168,174.12 1882.168,208.68 L1882.168,209.256 C1882.168,243.816 1907.512,272.616 1943.224,272.616 C1978.936,272.616 2003.704,244.392 2003.704,209.832 Z M2263.768,310.056 L2211.928,310.056 L2168.728,245.544 L2133.88,245.544 L2133.88,310.056 L2089.528,310.056 L2089.528,108.456 L2181.688,108.456 C2229.208,108.456 2257.72,133.512 2257.72,174.984 L2257.72,175.56 C2257.72,208.104 2240.152,228.552 2214.52,238.056 L2263.768,310.056 Z M2212.792,177.864 L2212.792,177.288 C2212.792,158.28 2199.544,148.488 2177.944,148.488 L2133.88,148.488 L2133.88,206.376 L2178.808,206.376 C2200.408,206.376 2212.792,194.856 2212.792,177.864 Z" id="EXPEDITOR" fill="#435363"></path>
    </g>
</svg>
